<svg width="71" height="52" viewBox="0 0 71 52" fill="none" xmlns="http://www.w3.org/2000/svg">
<path d="M67.7248 0H3.27521C1.46636 0 0 1.438 0 3.21186V48.7881C0 50.562 1.46636 52 3.27521 52H67.7248C69.5336 52 71 50.562 71 48.7881V3.21186C71 1.438 69.5336 0 67.7248 0Z" fill="#545776"/>
<path d="M47.4052 35.8379C46.3558 35.8368 45.3077 35.7682 44.2675 35.6324C43.2959 35.5166 42.3456 35.268 41.4443 34.8937C40.657 34.5764 39.965 34.068 39.4333 33.4162C38.9056 32.7082 38.6398 31.8449 38.68 30.9688V9.72552H44.1758V19.9071L43.1212 18.1727C43.5975 17.6413 44.1882 17.2201 44.8505 16.9394C45.534 16.6375 46.2537 16.4217 46.9925 16.297C47.5889 16.1867 48.1936 16.1244 48.8004 16.1107C51.6083 16.1107 53.746 16.9415 55.2133 18.6031C56.6805 20.2647 57.4142 22.6929 57.4142 25.8876C57.4593 27.4933 57.204 29.0936 56.6609 30.609C56.2279 31.7846 55.5056 32.8371 54.5582 33.6731C53.6379 34.4429 52.5585 35.0083 51.3944 35.3305C50.0961 35.6853 48.7528 35.8562 47.4052 35.8379ZM47.3331 31.2642C48.252 31.3082 49.1636 31.0847 49.9533 30.6219C50.6044 30.1886 51.0977 29.563 51.3616 28.8361C51.6629 27.9945 51.8093 27.107 51.7939 26.2152C51.8419 25.0694 51.6502 23.926 51.2306 22.8556C50.9302 22.1064 50.39 21.473 49.6912 21.0505C49.0018 20.6716 48.2215 20.4809 47.4314 20.4981C46.8763 20.5028 46.3232 20.563 45.7806 20.678C45.2131 20.7905 44.6671 20.99 44.1627 21.2689V29.5363C44.1492 29.7269 44.1793 29.9181 44.2506 30.0959C44.322 30.2737 44.433 30.4336 44.5754 30.5641C44.9037 30.8377 45.2986 31.0236 45.7217 31.1037C46.2507 31.2186 46.7913 31.2746 47.3331 31.2707V31.2642Z" fill="white"/>
<path d="M13.9458 35.2855V10.6827H24.0269C28.2934 10.6827 31.4289 11.7233 33.4333 13.8046C35.4377 15.8859 36.4399 18.9479 36.4399 22.9905C36.4399 27.0246 35.4377 30.0802 33.4333 32.1572C31.4289 34.2342 28.2934 35.2727 24.0269 35.2727L13.9458 35.2855ZM20.0377 30.6797H23.3129C25.5706 30.6797 27.2825 30.0652 28.4484 28.8361C29.6144 27.6028 30.1974 25.6628 30.1974 23.0034C30.1974 20.344 29.6144 18.3398 28.4484 17.1192C27.2825 15.8987 25.5728 15.2821 23.3129 15.2821H20.0377V30.6797Z" fill="white"/>
<path d="M34.1276 40.6492V42.2616H13.592V40.6364L34.1276 40.6492Z" fill="white"/>
<path d="M54.6633 40.6492V42.2616H34.1277V40.6364L54.6633 40.6492Z" fill="white"/>
</svg>
